<svg xmlns="http://www.w3.org/2000/svg" viewBox="0 0 600 400" role="img" aria-label="Project placeholder illustration">
  <defs>
    <linearGradient id="proj2" x1="0%" y1="0%" x2="100%" y2="100%">
      <stop offset="0%" stop-color="#10b981" />
      <stop offset="100%" stop-color="#14b8a6" />
    </linearGradient>
  </defs>
  <rect width="600" height="400" fill="#111827" />
  <rect x="40" y="40" width="520" height="320" rx="32" fill="url(#proj2)" opacity="0.9" />
  <path d="M120 130h100a16 16 0 0 1 16 16v60a16 16 0 0 1-16 16H120a16 16 0 0 1-16-16v-60a16 16 0 0 1 16-16Z" fill="#ffffff" opacity="0.18" />
  <circle cx="160" cy="200" r="18" fill="#ffffff" opacity="0.16" />
  <rect x="260" y="120" width="200" height="30" rx="15" fill="#ffffff" opacity="0.12" />
  <rect x="260" y="170" width="200" height="20" rx="10" fill="#ffffff" opacity="0.12" />
  <rect x="120" y="260" width="360" height="20" rx="10" fill="#ffffff" opacity="0.08" />
</svg>
